<svg xmlns="http://www.w3.org/2000/svg" width="7" height="4" viewBox="0 0 7 4">
  <defs>
    <style>
      .cls-1 {
        fill: #bfc7d8;
        fill-rule: evenodd;
      }
    </style>
  </defs>
  <path id="Dropdown" class="cls-1" d="M1543.16,38.161a0.554,0.554,0,0,1,.78,0l2.94,2.875a0.555,0.555,0,0,1,0,.775,0.566,0.566,0,0,1-.79,0l-2.93-2.874A0.537,0.537,0,0,1,1543.16,38.161Zm2.93,2.875,2.93-2.875a0.566,0.566,0,0,1,.79,0,0.555,0.555,0,0,1,0,.775l-2.93,2.874a0.566,0.566,0,0,1-.79,0A0.537,0.537,0,0,1,1546.09,41.035Z" transform="translate(-1543 -38)"/>
</svg>
