<svg xmlns="http://www.w3.org/2000/svg" width="16" height="16" viewBox="0 0 16 16">
  <defs>
    <style>
      .cls-1 {
        fill: #475364;
        fill-rule: evenodd;
      }
    </style>
  </defs>
  <path id="Settings" class="cls-1" d="M320,615v2h-2.091a5.924,5.924,0,0,1-.994,2.407l2.1,1.824-1.444,1.782L315.256,621a5.959,5.959,0,0,1-2.256.9V624h-2v-2.091a5.9,5.9,0,0,1-2.26-.9l-2.308,2.007-1.444-1.782,2.1-1.827a5.975,5.975,0,0,1-.988-2.4H304v-2h2.091a5.93,5.93,0,0,1,.994-2.407l-2.1-1.824,1.444-1.782,2.311,2.01a5.97,5.97,0,0,1,2.257-.9V608h2v2.1a5.959,5.959,0,0,1,2.256.9l2.312-2.01,1.444,1.782-2.1,1.824a5.93,5.93,0,0,1,.994,2.407H320Zm-8-2a3,3,0,1,0,3,3A3,3,0,0,0,312,613Z" transform="translate(-304 -608)"/>
</svg>
