<svg xmlns="http://www.w3.org/2000/svg" width="16" height="16" viewBox="0 0 16 16">
  <defs>
    <style>
      .cls-1 {
        fill: #353c48;
        fill-rule: evenodd;
      }
    </style>
  </defs>
  <path id="pencil_icon" data-name="pencil icon" class="cls-1" d="M1546.06,112.283a0.967,0.967,0,0,0-1.37,0l-1.43,1.432a0.429,0.429,0,0,0,0,.61l2.42,2.424a0.43,0.43,0,0,0,.61,0l1.43-1.431a0.972,0.972,0,0,0,0-1.375Zm-3.32,2.562a0.429,0.429,0,0,0-.61,0l-7.93,7.926a0.43,0.43,0,0,0,0,.611l2.42,2.424a0.432,0.432,0,0,0,.61,0l7.93-7.927a0.43,0.43,0,0,0,0-.611Zm-9,9.116a0.327,0.327,0,0,0-.46,0c-0.09.092-1.24,3.531-1.28,3.662a0.317,0.317,0,0,0,.38.385c0.13-.041,3.57-1.194,3.66-1.285a0.318,0.318,0,0,0,0-.458Z" transform="translate(-1532 -112)"/>
</svg>
